<?xml version="1.0" encoding="UTF-8" standalone="no"?>
<!-- Created with Inkscape (http://www.inkscape.org/) -->

<svg
   xmlns:dc="http://purl.org/dc/elements/1.1/"
   xmlns:cc="http://creativecommons.org/ns#"
   xmlns:rdf="http://www.w3.org/1999/02/22-rdf-syntax-ns#"
   xmlns:svg="http://www.w3.org/2000/svg"
   xmlns="http://www.w3.org/2000/svg"
   xmlns:sodipodi="http://sodipodi.sourceforge.net/DTD/sodipodi-0.dtd"
   xmlns:inkscape="http://www.inkscape.org/namespaces/inkscape"
   width="210mm"
   height="297mm"
   viewBox="0 0 210 297"
   version="1.1"
   id="svg8"
   sodipodi:docname="mainIcon.svg"
   inkscape:version="0.92.2 (5c3e80d, 2017-08-06)">
  <defs
     id="defs2">
    <marker
       inkscape:isstock="true"
       style="overflow:visible;"
       id="Arrow1Lend"
       refX="0.0"
       refY="0.0"
       orient="auto"
       inkscape:stockid="Arrow1Lend">
      <path
         transform="scale(0.8) rotate(180) translate(12.5,0)"
         style="fill-rule:evenodd;stroke:#000000;stroke-width:1.0pt;"
         d="M 0.0,0.0 L 5.0,-5.0 L -12.5,0.0 L 5.0,5.0 L 0.0,0.0 z "
         id="path4545" />
    </marker>
    <marker
       inkscape:isstock="true"
       style="overflow:visible"
       id="Arrow1Lstart"
       refX="0.0"
       refY="0.0"
       orient="auto"
       inkscape:stockid="Arrow1Lstart">
      <path
         transform="scale(0.8) translate(12.5,0)"
         style="fill-rule:evenodd;stroke:#000000;stroke-width:1.0pt"
         d="M 0.0,0.0 L 5.0,-5.0 L -12.5,0.0 L 5.0,5.0 L 0.0,0.0 z "
         id="path4542" />
    </marker>
    <style
       type="text/css"
       id="style1477">
   
    .fil0 {fill:black}
   
  </style>
  </defs>
  <sodipodi:namedview
     id="base"
     pagecolor="#ffffff"
     bordercolor="#666666"
     borderopacity="1.0"
     inkscape:pageopacity="0.0"
     inkscape:pageshadow="2"
     inkscape:zoom="0.70710678"
     inkscape:cx="419.41663"
     inkscape:cy="583.51176"
     inkscape:document-units="mm"
     inkscape:current-layer="layer1"
     showgrid="false"
     inkscape:window-width="1920"
     inkscape:window-height="1057"
     inkscape:window-x="1912"
     inkscape:window-y="-8"
     inkscape:window-maximized="1" />
  <metadata
     id="metadata5">
    <rdf:RDF>
      <cc:Work
         rdf:about="">
        <dc:format>image/svg+xml</dc:format>
        <dc:type
           rdf:resource="http://purl.org/dc/dcmitype/StillImage" />
        <dc:title />
      </cc:Work>
    </rdf:RDF>
  </metadata>
  <g
     inkscape:label="Layer 1"
     inkscape:groupmode="layer"
     id="layer1">
    <rect
       style="fill:#ffffff;fill-opacity:1;stroke:none;stroke-width:5;stroke-linecap:round;stroke-linejoin:round;stroke-miterlimit:4;stroke-dasharray:none;stroke-dashoffset:0;stroke-opacity:1"
       id="rect962"
       width="67.726097"
       height="63.23597"
       x="56.500778"
       y="106.16955"
       ry="2.0000012" />
    <path
       style="fill:#3c77dc;fill-opacity:1;stroke:none;stroke-width:18.89763832;stroke-linecap:round;stroke-linejoin:round;stroke-miterlimit:4;stroke-dasharray:none;stroke-dashoffset:0;stroke-opacity:1"
       d="M 337.63086 327.97656 A 188.89404 188.89405 0 0 0 148.73633 516.86914 A 188.89404 188.89405 0 0 0 337.63086 705.76367 A 188.89404 188.89405 0 0 0 526.52539 516.86914 A 188.89404 188.89405 0 0 0 337.63086 327.97656 z M 242.96289 433.13086 L 438.31445 433.13086 L 438.31445 516.85352 L 435.98828 516.85352 L 419.70898 516.85352 L 419.70898 465.68945 L 263.89453 465.68945 L 263.89453 579.64453 L 303.42969 579.64453 L 303.42969 595.92383 L 303.42969 598.24805 L 242.96289 598.24805 L 242.96289 433.13086 z M 349.94141 442.43359 L 349.94141 456.38672 L 363.89453 456.38672 L 363.89453 442.43359 L 349.94141 442.43359 z M 370.87109 442.43359 L 370.87109 456.38672 L 384.82617 456.38672 L 384.82617 442.43359 L 370.87109 442.43359 z M 391.80273 442.43359 L 391.80273 456.38672 L 419.70898 456.38672 L 419.70898 442.43359 L 391.80273 442.43359 z M 340.63867 516.85352 L 354.5918 516.85352 C 359.24301 516.85352 361.57031 519.17884 361.57031 523.83008 L 361.57031 530.80664 L 435.98828 530.80664 C 445.29068 530.80664 452.26758 537.7835 452.26758 547.08594 L 452.26758 598.24805 C 452.26758 607.55048 445.29068 614.52734 435.98828 614.52734 L 333.66211 614.52734 C 324.35969 614.52734 317.38281 607.55048 317.38281 598.24805 L 317.38281 547.08594 C 317.38281 537.7835 324.35969 530.80664 333.66211 530.80664 L 333.66211 523.83008 C 333.66211 519.17884 335.98746 516.85352 340.63867 516.85352 z M 384.82617 542.43359 C 368.54695 542.43359 354.5918 556.38871 354.5918 572.66797 C 354.5918 588.94719 368.54695 602.90039 384.82617 602.90039 C 401.10543 602.90039 415.05859 588.94719 415.05859 572.66797 C 415.05859 556.38871 401.10543 542.43359 384.82617 542.43359 z M 384.82617 556.38867 C 394.12861 556.38867 401.10547 563.36553 401.10547 572.66797 C 401.10547 581.97041 394.12861 588.94727 384.82617 588.94727 C 375.52379 588.94727 368.54688 581.97041 368.54688 572.66797 C 368.54688 563.36553 375.52379 556.38867 384.82617 556.38867 z "
       transform="scale(0.26458333)"
       id="path4605" />
  </g>
</svg>
